<mxfile host="app.diagrams.net" modified="2023-05-04T13:46:06.901Z" agent="Mozilla/5.0 (Windows NT 10.0; Win64; x64) AppleWebKit/537.36 (KHTML, like Gecko) Chrome/112.0.0.0 Safari/537.36" etag="JatEjX4DYTpL9IHZltZW" version="21.2.7" type="device">
  <diagram name="Sayfa -1" id="N_Sun983DTggrOHZfptF">
    <mxGraphModel dx="2062" dy="684" grid="1" gridSize="10" guides="1" tooltips="1" connect="1" arrows="1" fold="1" page="1" pageScale="1" pageWidth="827" pageHeight="1169" math="0" shadow="0">
      <root>
        <mxCell id="0" />
        <mxCell id="1" parent="0" />
        <mxCell id="JTGrG_RFn2T3CssoCH3i-1" style="rounded=0;orthogonalLoop=1;jettySize=auto;html=1;exitX=0.5;exitY=1;exitDx=0;exitDy=0;entryX=0.5;entryY=0;entryDx=0;entryDy=0;endArrow=none;endFill=0;" parent="1" source="JTGrG_RFn2T3CssoCH3i-4" target="JTGrG_RFn2T3CssoCH3i-60" edge="1">
          <mxGeometry relative="1" as="geometry" />
        </mxCell>
        <mxCell id="JTGrG_RFn2T3CssoCH3i-2" style="rounded=0;orthogonalLoop=1;jettySize=auto;html=1;exitX=1;exitY=0.5;exitDx=0;exitDy=0;entryX=0;entryY=0.5;entryDx=0;entryDy=0;endArrow=none;endFill=0;" parent="1" source="JTGrG_RFn2T3CssoCH3i-4" target="JTGrG_RFn2T3CssoCH3i-58" edge="1">
          <mxGeometry relative="1" as="geometry" />
        </mxCell>
        <mxCell id="JTGrG_RFn2T3CssoCH3i-3" style="rounded=0;orthogonalLoop=1;jettySize=auto;html=1;exitX=0.5;exitY=1;exitDx=0;exitDy=0;entryX=0;entryY=0;entryDx=0;entryDy=0;endArrow=none;endFill=0;" parent="1" source="JTGrG_RFn2T3CssoCH3i-4" target="JTGrG_RFn2T3CssoCH3i-56" edge="1">
          <mxGeometry relative="1" as="geometry" />
        </mxCell>
        <mxCell id="JTGrG_RFn2T3CssoCH3i-4" value="editors" style="rounded=0;whiteSpace=wrap;html=1;fillColor=#FFFF33;" parent="1" vertex="1">
          <mxGeometry x="-400" y="410" width="75" height="30" as="geometry" />
        </mxCell>
        <mxCell id="JTGrG_RFn2T3CssoCH3i-5" style="rounded=0;orthogonalLoop=1;jettySize=auto;html=1;exitX=1.061;exitY=0.645;exitDx=0;exitDy=0;entryX=0.25;entryY=0;entryDx=0;entryDy=0;endArrow=none;endFill=0;exitPerimeter=0;" parent="1" source="JTGrG_RFn2T3CssoCH3i-6" target="JTGrG_RFn2T3CssoCH3i-4" edge="1">
          <mxGeometry relative="1" as="geometry" />
        </mxCell>
        <mxCell id="JTGrG_RFn2T3CssoCH3i-6" value="experience year" style="ellipse;whiteSpace=wrap;html=1;" parent="1" vertex="1">
          <mxGeometry x="-500" y="350" width="60" height="60" as="geometry" />
        </mxCell>
        <mxCell id="JTGrG_RFn2T3CssoCH3i-12" style="rounded=0;orthogonalLoop=1;jettySize=auto;html=1;exitX=1;exitY=0.75;exitDx=0;exitDy=0;entryX=0;entryY=0;entryDx=0;entryDy=0;endArrow=none;endFill=0;" parent="1" source="JTGrG_RFn2T3CssoCH3i-15" target="JTGrG_RFn2T3CssoCH3i-118" edge="1">
          <mxGeometry relative="1" as="geometry">
            <mxPoint x="50.3223304703597" y="604.5576695296405" as="targetPoint" />
          </mxGeometry>
        </mxCell>
        <mxCell id="JTGrG_RFn2T3CssoCH3i-13" style="rounded=0;orthogonalLoop=1;jettySize=auto;html=1;entryX=0.5;entryY=0;entryDx=0;entryDy=0;endArrow=none;endFill=0;shape=link;exitX=1;exitY=0.5;exitDx=0;exitDy=0;" parent="1" source="JTGrG_RFn2T3CssoCH3i-77" target="JTGrG_RFn2T3CssoCH3i-43" edge="1">
          <mxGeometry relative="1" as="geometry">
            <mxPoint x="80" y="839.38" as="sourcePoint" />
          </mxGeometry>
        </mxCell>
        <mxCell id="JTGrG_RFn2T3CssoCH3i-14" style="rounded=0;orthogonalLoop=1;jettySize=auto;html=1;exitX=0.06;exitY=1.058;exitDx=0;exitDy=0;entryX=1;entryY=0;entryDx=0;entryDy=0;endArrow=none;endFill=0;exitPerimeter=0;shape=link;" parent="1" source="JTGrG_RFn2T3CssoCH3i-15" target="JTGrG_RFn2T3CssoCH3i-93" edge="1">
          <mxGeometry relative="1" as="geometry" />
        </mxCell>
        <mxCell id="JTGrG_RFn2T3CssoCH3i-15" value="manuscripts" style="rounded=0;whiteSpace=wrap;html=1;fillColor=#FFFF33;" parent="1" vertex="1">
          <mxGeometry x="-32.5" y="669.38" width="80" height="40" as="geometry" />
        </mxCell>
        <mxCell id="JTGrG_RFn2T3CssoCH3i-16" style="rounded=0;orthogonalLoop=1;jettySize=auto;html=1;exitX=0;exitY=0.5;exitDx=0;exitDy=0;entryX=1;entryY=0.5;entryDx=0;entryDy=0;endArrow=none;endFill=0;" parent="1" source="JTGrG_RFn2T3CssoCH3i-17" target="JTGrG_RFn2T3CssoCH3i-15" edge="1">
          <mxGeometry relative="1" as="geometry" />
        </mxCell>
        <mxCell id="JTGrG_RFn2T3CssoCH3i-17" value="received date" style="ellipse;whiteSpace=wrap;html=1;" parent="1" vertex="1">
          <mxGeometry x="200" y="765" width="60" height="60" as="geometry" />
        </mxCell>
        <mxCell id="JTGrG_RFn2T3CssoCH3i-18" style="rounded=0;orthogonalLoop=1;jettySize=auto;html=1;exitX=0;exitY=0.5;exitDx=0;exitDy=0;endArrow=none;endFill=0;entryX=1;entryY=0.25;entryDx=0;entryDy=0;" parent="1" source="JTGrG_RFn2T3CssoCH3i-19" target="JTGrG_RFn2T3CssoCH3i-15" edge="1">
          <mxGeometry relative="1" as="geometry" />
        </mxCell>
        <mxCell id="JTGrG_RFn2T3CssoCH3i-19" value="record information" style="ellipse;whiteSpace=wrap;html=1;" parent="1" vertex="1">
          <mxGeometry x="250" y="720" width="70" height="60" as="geometry" />
        </mxCell>
        <mxCell id="JTGrG_RFn2T3CssoCH3i-20" style="rounded=0;orthogonalLoop=1;jettySize=auto;html=1;entryX=1;entryY=0;entryDx=0;entryDy=0;endArrow=none;endFill=0;" parent="1" source="JTGrG_RFn2T3CssoCH3i-21" target="JTGrG_RFn2T3CssoCH3i-15" edge="1">
          <mxGeometry relative="1" as="geometry" />
        </mxCell>
        <mxCell id="JTGrG_RFn2T3CssoCH3i-21" value="manuscript Number" style="ellipse;whiteSpace=wrap;html=1;" parent="1" vertex="1">
          <mxGeometry x="195" y="685" width="60" height="40" as="geometry" />
        </mxCell>
        <mxCell id="JTGrG_RFn2T3CssoCH3i-22" value="author" style="rounded=0;whiteSpace=wrap;html=1;fillColor=#FFFF33;" parent="1" vertex="1">
          <mxGeometry x="375" y="420" width="50" height="30" as="geometry" />
        </mxCell>
        <mxCell id="DfyGqf4TCTLHo5Vh78Qi-8" style="rounded=0;orthogonalLoop=1;jettySize=auto;html=1;exitX=0.5;exitY=1;exitDx=0;exitDy=0;endArrow=none;endFill=0;" parent="1" source="JTGrG_RFn2T3CssoCH3i-28" target="JTGrG_RFn2T3CssoCH3i-120" edge="1">
          <mxGeometry relative="1" as="geometry" />
        </mxCell>
        <mxCell id="JTGrG_RFn2T3CssoCH3i-28" value="mailing address" style="ellipse;whiteSpace=wrap;html=1;" parent="1" vertex="1">
          <mxGeometry x="-8.75" y="70" width="60" height="60" as="geometry" />
        </mxCell>
        <mxCell id="JTGrG_RFn2T3CssoCH3i-31" style="rounded=0;orthogonalLoop=1;jettySize=auto;html=1;exitX=0;exitY=0.75;exitDx=0;exitDy=0;endArrow=none;endFill=0;" parent="1" source="JTGrG_RFn2T3CssoCH3i-33" target="JTGrG_RFn2T3CssoCH3i-62" edge="1">
          <mxGeometry relative="1" as="geometry" />
        </mxCell>
        <mxCell id="JTGrG_RFn2T3CssoCH3i-32" style="rounded=0;orthogonalLoop=1;jettySize=auto;html=1;exitX=1;exitY=1;exitDx=0;exitDy=0;entryX=0;entryY=0;entryDx=0;entryDy=0;endArrow=none;endFill=0;shape=link;" parent="1" source="JTGrG_RFn2T3CssoCH3i-33" target="JTGrG_RFn2T3CssoCH3i-64" edge="1">
          <mxGeometry relative="1" as="geometry" />
        </mxCell>
        <mxCell id="JTGrG_RFn2T3CssoCH3i-33" value="reviewers" style="rounded=0;whiteSpace=wrap;html=1;fillColor=#FFFF33;" parent="1" vertex="1">
          <mxGeometry x="-32.5" y="410" width="75" height="30" as="geometry" />
        </mxCell>
        <mxCell id="JTGrG_RFn2T3CssoCH3i-42" value="feedback" style="rounded=0;whiteSpace=wrap;html=1;fillColor=#FFFF33;" parent="1" vertex="1">
          <mxGeometry x="-507.5" y="677.5" width="80" height="40" as="geometry" />
        </mxCell>
        <mxCell id="DfyGqf4TCTLHo5Vh78Qi-77" style="rounded=0;orthogonalLoop=1;jettySize=auto;html=1;exitX=1;exitY=0.5;exitDx=0;exitDy=0;entryX=0;entryY=0.5;entryDx=0;entryDy=0;endArrow=none;endFill=0;" parent="1" source="JTGrG_RFn2T3CssoCH3i-43" target="DfyGqf4TCTLHo5Vh78Qi-76" edge="1">
          <mxGeometry relative="1" as="geometry" />
        </mxCell>
        <mxCell id="JTGrG_RFn2T3CssoCH3i-43" value="issue" style="rounded=0;whiteSpace=wrap;html=1;fillColor=#FFFF33;" parent="1" vertex="1">
          <mxGeometry x="-41.5" y="899.38" width="113" height="55" as="geometry" />
        </mxCell>
        <mxCell id="JTGrG_RFn2T3CssoCH3i-44" style="rounded=0;orthogonalLoop=1;jettySize=auto;html=1;exitX=0.5;exitY=0;exitDx=0;exitDy=0;endArrow=none;endFill=0;entryX=0.25;entryY=1;entryDx=0;entryDy=0;" parent="1" source="JTGrG_RFn2T3CssoCH3i-45" target="JTGrG_RFn2T3CssoCH3i-43" edge="1">
          <mxGeometry relative="1" as="geometry">
            <mxPoint x="40" y="1029.38" as="targetPoint" />
          </mxGeometry>
        </mxCell>
        <mxCell id="JTGrG_RFn2T3CssoCH3i-45" value="number are recorded" style="ellipse;whiteSpace=wrap;html=1;" parent="1" vertex="1">
          <mxGeometry x="-85" y="1009.38" width="60" height="50" as="geometry" />
        </mxCell>
        <mxCell id="JTGrG_RFn2T3CssoCH3i-46" style="rounded=0;orthogonalLoop=1;jettySize=auto;html=1;endArrow=none;endFill=0;exitX=0.5;exitY=0;exitDx=0;exitDy=0;" parent="1" source="JTGrG_RFn2T3CssoCH3i-47" target="JTGrG_RFn2T3CssoCH3i-43" edge="1">
          <mxGeometry relative="1" as="geometry" />
        </mxCell>
        <mxCell id="JTGrG_RFn2T3CssoCH3i-47" value="volume" style="ellipse;whiteSpace=wrap;html=1;" parent="1" vertex="1">
          <mxGeometry x="-17.5" y="1024.38" width="50" height="35" as="geometry" />
        </mxCell>
        <mxCell id="JTGrG_RFn2T3CssoCH3i-48" style="rounded=0;orthogonalLoop=1;jettySize=auto;html=1;exitX=0.5;exitY=0;exitDx=0;exitDy=0;endArrow=none;endFill=0;entryX=0.75;entryY=1;entryDx=0;entryDy=0;" parent="1" source="JTGrG_RFn2T3CssoCH3i-49" target="JTGrG_RFn2T3CssoCH3i-43" edge="1">
          <mxGeometry relative="1" as="geometry">
            <mxPoint x="321" y="924.38" as="targetPoint" />
          </mxGeometry>
        </mxCell>
        <mxCell id="JTGrG_RFn2T3CssoCH3i-49" value="publication year" style="ellipse;whiteSpace=wrap;html=1;" parent="1" vertex="1">
          <mxGeometry x="42.5" y="1024.38" width="70" height="30" as="geometry" />
        </mxCell>
        <mxCell id="JTGrG_RFn2T3CssoCH3i-50" style="rounded=0;orthogonalLoop=1;jettySize=auto;html=1;endArrow=none;endFill=0;exitX=0;exitY=0.5;exitDx=0;exitDy=0;entryX=1;entryY=1;entryDx=0;entryDy=0;" parent="1" source="JTGrG_RFn2T3CssoCH3i-119" target="JTGrG_RFn2T3CssoCH3i-43" edge="1">
          <mxGeometry relative="1" as="geometry">
            <mxPoint x="297" y="824.38" as="sourcePoint" />
            <mxPoint x="210" y="849.38" as="targetPoint" />
          </mxGeometry>
        </mxCell>
        <mxCell id="JTGrG_RFn2T3CssoCH3i-51" value="areas of interest" style="rounded=0;whiteSpace=wrap;html=1;fillColor=#FFFF33;" parent="1" vertex="1">
          <mxGeometry x="90" y="535" width="100" height="30" as="geometry" />
        </mxCell>
        <mxCell id="JTGrG_RFn2T3CssoCH3i-52" value="type setting" style="rounded=0;whiteSpace=wrap;html=1;fillColor=#FFFF33;" parent="1" vertex="1">
          <mxGeometry x="-315" y="909.38" width="120" height="60" as="geometry" />
        </mxCell>
        <mxCell id="JTGrG_RFn2T3CssoCH3i-154" style="rounded=0;orthogonalLoop=1;jettySize=auto;html=1;exitX=0.5;exitY=0;exitDx=0;exitDy=0;entryX=0.5;entryY=1;entryDx=0;entryDy=0;endArrow=none;endFill=0;shape=link;" parent="1" source="JTGrG_RFn2T3CssoCH3i-54" target="JTGrG_RFn2T3CssoCH3i-22" edge="1">
          <mxGeometry relative="1" as="geometry" />
        </mxCell>
        <mxCell id="JTGrG_RFn2T3CssoCH3i-155" style="rounded=0;orthogonalLoop=1;jettySize=auto;html=1;exitX=0.5;exitY=1;exitDx=0;exitDy=0;entryX=0.655;entryY=0.002;entryDx=0;entryDy=0;endArrow=none;endFill=0;entryPerimeter=0;shape=link;" parent="1" source="JTGrG_RFn2T3CssoCH3i-54" target="JTGrG_RFn2T3CssoCH3i-15" edge="1">
          <mxGeometry relative="1" as="geometry">
            <Array as="points">
              <mxPoint x="400" y="640" />
              <mxPoint x="20" y="640" />
            </Array>
          </mxGeometry>
        </mxCell>
        <mxCell id="JTGrG_RFn2T3CssoCH3i-54" value="submitted" style="rhombus;whiteSpace=wrap;html=1;fillColor=#dae8fc;strokeColor=#6c8ebf;" parent="1" vertex="1">
          <mxGeometry x="360" y="547.5" width="80" height="80" as="geometry" />
        </mxCell>
        <mxCell id="JTGrG_RFn2T3CssoCH3i-55" style="rounded=0;orthogonalLoop=1;jettySize=auto;html=1;exitX=1;exitY=1;exitDx=0;exitDy=0;entryX=0;entryY=0.5;entryDx=0;entryDy=0;endArrow=none;endFill=0;shape=link;" parent="1" source="JTGrG_RFn2T3CssoCH3i-56" target="JTGrG_RFn2T3CssoCH3i-15" edge="1">
          <mxGeometry relative="1" as="geometry" />
        </mxCell>
        <mxCell id="JTGrG_RFn2T3CssoCH3i-56" value="publish" style="rhombus;whiteSpace=wrap;html=1;fillColor=#dae8fc;strokeColor=#6c8ebf;" parent="1" vertex="1">
          <mxGeometry x="-222.5" y="535" width="80" height="80" as="geometry" />
        </mxCell>
        <mxCell id="JTGrG_RFn2T3CssoCH3i-57" style="rounded=0;orthogonalLoop=1;jettySize=auto;html=1;exitX=1;exitY=0.5;exitDx=0;exitDy=0;endArrow=none;endFill=0;" parent="1" source="JTGrG_RFn2T3CssoCH3i-58" target="JTGrG_RFn2T3CssoCH3i-33" edge="1">
          <mxGeometry relative="1" as="geometry" />
        </mxCell>
        <mxCell id="JTGrG_RFn2T3CssoCH3i-58" value="assigned" style="rhombus;whiteSpace=wrap;html=1;fillColor=#dae8fc;strokeColor=#6c8ebf;" parent="1" vertex="1">
          <mxGeometry x="-212.5" y="385" width="80" height="80" as="geometry" />
        </mxCell>
        <mxCell id="JTGrG_RFn2T3CssoCH3i-59" style="rounded=0;orthogonalLoop=1;jettySize=auto;html=1;exitX=0.5;exitY=1;exitDx=0;exitDy=0;endArrow=none;endFill=0;shape=link;" parent="1" source="JTGrG_RFn2T3CssoCH3i-60" edge="1">
          <mxGeometry relative="1" as="geometry">
            <mxPoint x="-480" y="675" as="targetPoint" />
          </mxGeometry>
        </mxCell>
        <mxCell id="JTGrG_RFn2T3CssoCH3i-60" value="collect" style="rhombus;whiteSpace=wrap;html=1;fillColor=#dae8fc;strokeColor=#6c8ebf;" parent="1" vertex="1">
          <mxGeometry x="-545" y="525" width="80" height="80" as="geometry" />
        </mxCell>
        <mxCell id="JTGrG_RFn2T3CssoCH3i-61" style="rounded=0;orthogonalLoop=1;jettySize=auto;html=1;exitX=0;exitY=1;exitDx=0;exitDy=0;endArrow=none;endFill=0;shape=link;" parent="1" source="JTGrG_RFn2T3CssoCH3i-62" target="JTGrG_RFn2T3CssoCH3i-42" edge="1">
          <mxGeometry relative="1" as="geometry" />
        </mxCell>
        <mxCell id="JTGrG_RFn2T3CssoCH3i-62" value="provide" style="rhombus;whiteSpace=wrap;html=1;fillColor=#dae8fc;strokeColor=#6c8ebf;" parent="1" vertex="1">
          <mxGeometry x="-362.5" y="535" width="80" height="80" as="geometry" />
        </mxCell>
        <mxCell id="JTGrG_RFn2T3CssoCH3i-63" style="rounded=0;orthogonalLoop=1;jettySize=auto;html=1;exitX=1;exitY=1;exitDx=0;exitDy=0;entryX=0.5;entryY=0;entryDx=0;entryDy=0;endArrow=none;endFill=0;" parent="1" source="JTGrG_RFn2T3CssoCH3i-64" target="JTGrG_RFn2T3CssoCH3i-51" edge="1">
          <mxGeometry relative="1" as="geometry" />
        </mxCell>
        <mxCell id="JTGrG_RFn2T3CssoCH3i-64" value="has" style="rhombus;whiteSpace=wrap;html=1;fillColor=#dae8fc;strokeColor=#6c8ebf;" parent="1" vertex="1">
          <mxGeometry x="65" y="450" width="80" height="80" as="geometry" />
        </mxCell>
        <mxCell id="JTGrG_RFn2T3CssoCH3i-67" value="N" style="text;html=1;strokeColor=none;fillColor=none;align=center;verticalAlign=middle;whiteSpace=wrap;rounded=0;" parent="1" vertex="1">
          <mxGeometry x="320" y="605" width="60" height="30" as="geometry" />
        </mxCell>
        <mxCell id="JTGrG_RFn2T3CssoCH3i-68" value="M" style="text;html=1;strokeColor=none;fillColor=none;align=center;verticalAlign=middle;whiteSpace=wrap;rounded=0;" parent="1" vertex="1">
          <mxGeometry x="353" y="465" width="60" height="30" as="geometry" />
        </mxCell>
        <mxCell id="JTGrG_RFn2T3CssoCH3i-72" value="1" style="text;html=1;strokeColor=none;fillColor=none;align=center;verticalAlign=middle;whiteSpace=wrap;rounded=0;" parent="1" vertex="1">
          <mxGeometry x="-497.5" y="450" width="60" height="30" as="geometry" />
        </mxCell>
        <mxCell id="JTGrG_RFn2T3CssoCH3i-73" value="M" style="text;html=1;strokeColor=none;fillColor=none;align=center;verticalAlign=middle;whiteSpace=wrap;rounded=0;" parent="1" vertex="1">
          <mxGeometry x="-132.5" y="650" width="60" height="30" as="geometry" />
        </mxCell>
        <mxCell id="JTGrG_RFn2T3CssoCH3i-74" value="M" style="text;html=1;strokeColor=none;fillColor=none;align=center;verticalAlign=middle;whiteSpace=wrap;rounded=0;" parent="1" vertex="1">
          <mxGeometry x="713.75" y="205" width="60" height="30" as="geometry" />
        </mxCell>
        <mxCell id="JTGrG_RFn2T3CssoCH3i-75" value="N" style="text;html=1;strokeColor=none;fillColor=none;align=center;verticalAlign=middle;whiteSpace=wrap;rounded=0;" parent="1" vertex="1">
          <mxGeometry x="750" y="10" width="60" height="30" as="geometry" />
        </mxCell>
        <mxCell id="JTGrG_RFn2T3CssoCH3i-76" value="" style="rounded=0;orthogonalLoop=1;jettySize=auto;html=1;exitX=0.5;exitY=1;exitDx=0;exitDy=0;entryX=0;entryY=0.5;entryDx=0;entryDy=0;endArrow=none;endFill=0;" parent="1" source="JTGrG_RFn2T3CssoCH3i-15" target="JTGrG_RFn2T3CssoCH3i-77" edge="1">
          <mxGeometry relative="1" as="geometry">
            <mxPoint x="23" y="709.38" as="sourcePoint" />
            <mxPoint x="429" y="954.38" as="targetPoint" />
          </mxGeometry>
        </mxCell>
        <mxCell id="JTGrG_RFn2T3CssoCH3i-77" value="contain" style="rhombus;whiteSpace=wrap;html=1;fillColor=#dae8fc;strokeColor=#6c8ebf;direction=south;" parent="1" vertex="1">
          <mxGeometry x="-25" y="780" width="80" height="80" as="geometry" />
        </mxCell>
        <mxCell id="JTGrG_RFn2T3CssoCH3i-78" value="1" style="text;html=1;strokeColor=none;fillColor=none;align=center;verticalAlign=middle;whiteSpace=wrap;rounded=0;" parent="1" vertex="1">
          <mxGeometry x="7.5" y="730" width="60" height="30" as="geometry" />
        </mxCell>
        <mxCell id="JTGrG_RFn2T3CssoCH3i-79" value="M" style="text;html=1;strokeColor=none;fillColor=none;align=center;verticalAlign=middle;whiteSpace=wrap;rounded=0;" parent="1" vertex="1">
          <mxGeometry x="30" y="860" width="60" height="30" as="geometry" />
        </mxCell>
        <mxCell id="JTGrG_RFn2T3CssoCH3i-80" style="rounded=0;orthogonalLoop=1;jettySize=auto;html=1;exitX=0.5;exitY=0;exitDx=0;exitDy=0;entryX=0.75;entryY=1;entryDx=0;entryDy=0;endArrow=none;endFill=0;" parent="1" source="JTGrG_RFn2T3CssoCH3i-81" target="JTGrG_RFn2T3CssoCH3i-51" edge="1">
          <mxGeometry relative="1" as="geometry" />
        </mxCell>
        <mxCell id="JTGrG_RFn2T3CssoCH3i-81" value="description" style="ellipse;whiteSpace=wrap;html=1;" parent="1" vertex="1">
          <mxGeometry x="142.5" y="580" width="70" height="40" as="geometry" />
        </mxCell>
        <mxCell id="JTGrG_RFn2T3CssoCH3i-82" style="rounded=0;orthogonalLoop=1;jettySize=auto;html=1;exitX=0.5;exitY=0;exitDx=0;exitDy=0;entryX=0.25;entryY=1;entryDx=0;entryDy=0;endArrow=none;endFill=0;" parent="1" source="JTGrG_RFn2T3CssoCH3i-83" target="JTGrG_RFn2T3CssoCH3i-51" edge="1">
          <mxGeometry relative="1" as="geometry" />
        </mxCell>
        <mxCell id="JTGrG_RFn2T3CssoCH3i-83" value="&lt;u&gt;&lt;b&gt;IS Code&lt;/b&gt;&lt;/u&gt;" style="ellipse;whiteSpace=wrap;html=1;" parent="1" vertex="1">
          <mxGeometry x="67.5" y="580" width="75" height="40" as="geometry" />
        </mxCell>
        <mxCell id="JTGrG_RFn2T3CssoCH3i-84" style="rounded=0;orthogonalLoop=1;jettySize=auto;html=1;exitX=1;exitY=0;exitDx=0;exitDy=0;entryX=0;entryY=0.75;entryDx=0;entryDy=0;endArrow=none;endFill=0;" parent="1" source="JTGrG_RFn2T3CssoCH3i-85" target="JTGrG_RFn2T3CssoCH3i-52" edge="1">
          <mxGeometry relative="1" as="geometry" />
        </mxCell>
        <mxCell id="JTGrG_RFn2T3CssoCH3i-85" value="line spacies" style="ellipse;whiteSpace=wrap;html=1;" parent="1" vertex="1">
          <mxGeometry x="-413" y="939.38" width="60" height="60" as="geometry" />
        </mxCell>
        <mxCell id="JTGrG_RFn2T3CssoCH3i-86" style="rounded=0;orthogonalLoop=1;jettySize=auto;html=1;exitX=0.5;exitY=0;exitDx=0;exitDy=0;entryX=0.75;entryY=1;entryDx=0;entryDy=0;endArrow=none;endFill=0;" parent="1" source="JTGrG_RFn2T3CssoCH3i-87" target="JTGrG_RFn2T3CssoCH3i-52" edge="1">
          <mxGeometry relative="1" as="geometry" />
        </mxCell>
        <mxCell id="JTGrG_RFn2T3CssoCH3i-87" value="justification" style="ellipse;whiteSpace=wrap;html=1;" parent="1" vertex="1">
          <mxGeometry x="-238" y="999.38" width="70" height="40" as="geometry" />
        </mxCell>
        <mxCell id="JTGrG_RFn2T3CssoCH3i-88" style="rounded=0;orthogonalLoop=1;jettySize=auto;html=1;exitX=0.5;exitY=0;exitDx=0;exitDy=0;endArrow=none;endFill=0;" parent="1" source="JTGrG_RFn2T3CssoCH3i-89" target="JTGrG_RFn2T3CssoCH3i-52" edge="1">
          <mxGeometry relative="1" as="geometry" />
        </mxCell>
        <mxCell id="JTGrG_RFn2T3CssoCH3i-89" value="font size" style="ellipse;whiteSpace=wrap;html=1;" parent="1" vertex="1">
          <mxGeometry x="-291" y="989.38" width="46" height="50" as="geometry" />
        </mxCell>
        <mxCell id="JTGrG_RFn2T3CssoCH3i-90" style="rounded=0;orthogonalLoop=1;jettySize=auto;html=1;exitX=0.5;exitY=0;exitDx=0;exitDy=0;entryX=0.15;entryY=1.017;entryDx=0;entryDy=0;entryPerimeter=0;endArrow=none;endFill=0;" parent="1" source="JTGrG_RFn2T3CssoCH3i-91" target="JTGrG_RFn2T3CssoCH3i-52" edge="1">
          <mxGeometry relative="1" as="geometry" />
        </mxCell>
        <mxCell id="JTGrG_RFn2T3CssoCH3i-91" value="font style" style="ellipse;whiteSpace=wrap;html=1;" parent="1" vertex="1">
          <mxGeometry x="-353" y="979.38" width="50" height="50" as="geometry" />
        </mxCell>
        <mxCell id="JTGrG_RFn2T3CssoCH3i-92" style="rounded=0;orthogonalLoop=1;jettySize=auto;html=1;exitX=0;exitY=1;exitDx=0;exitDy=0;entryX=0.5;entryY=0;entryDx=0;entryDy=0;endArrow=none;endFill=0;shape=link;" parent="1" source="JTGrG_RFn2T3CssoCH3i-93" target="JTGrG_RFn2T3CssoCH3i-52" edge="1">
          <mxGeometry relative="1" as="geometry" />
        </mxCell>
        <mxCell id="JTGrG_RFn2T3CssoCH3i-93" value="information about format" style="rhombus;whiteSpace=wrap;html=1;fillColor=#dae8fc;strokeColor=#6c8ebf;" parent="1" vertex="1">
          <mxGeometry x="-198.75" y="755" width="120" height="105" as="geometry" />
        </mxCell>
        <mxCell id="JTGrG_RFn2T3CssoCH3i-94" style="rounded=0;orthogonalLoop=1;jettySize=auto;html=1;exitX=0;exitY=0;exitDx=0;exitDy=0;entryX=0.75;entryY=1;entryDx=0;entryDy=0;endArrow=none;endFill=0;" parent="1" source="JTGrG_RFn2T3CssoCH3i-113" target="JTGrG_RFn2T3CssoCH3i-42" edge="1">
          <mxGeometry relative="1" as="geometry">
            <mxPoint x="-703.7931034482754" y="712.9310344827584" as="sourcePoint" />
          </mxGeometry>
        </mxCell>
        <mxCell id="JTGrG_RFn2T3CssoCH3i-95" style="rounded=0;orthogonalLoop=1;jettySize=auto;html=1;exitX=0.5;exitY=1;exitDx=0;exitDy=0;endArrow=none;endFill=0;" parent="1" source="JTGrG_RFn2T3CssoCH3i-96" edge="1">
          <mxGeometry relative="1" as="geometry">
            <mxPoint x="-430" y="695" as="targetPoint" />
          </mxGeometry>
        </mxCell>
        <mxCell id="JTGrG_RFn2T3CssoCH3i-96" value="&lt;u&gt;&lt;b&gt;fb_id&lt;br&gt;&lt;/b&gt;&lt;/u&gt;" style="ellipse;whiteSpace=wrap;html=1;" parent="1" vertex="1">
          <mxGeometry x="-362.5" y="685" width="70" height="40" as="geometry" />
        </mxCell>
        <mxCell id="JTGrG_RFn2T3CssoCH3i-97" style="rounded=0;orthogonalLoop=1;jettySize=auto;html=1;exitX=0;exitY=0;exitDx=0;exitDy=0;endArrow=none;endFill=0;entryX=0.5;entryY=1;entryDx=0;entryDy=0;" parent="1" source="JTGrG_RFn2T3CssoCH3i-98" target="JTGrG_RFn2T3CssoCH3i-115" edge="1">
          <mxGeometry relative="1" as="geometry">
            <mxPoint x="-577.9499999999998" y="831.5500000000002" as="targetPoint" />
          </mxGeometry>
        </mxCell>
        <mxCell id="JTGrG_RFn2T3CssoCH3i-98" value="methodology rating" style="ellipse;whiteSpace=wrap;html=1;" parent="1" vertex="1">
          <mxGeometry x="-490" y="822.5" width="100" height="45" as="geometry" />
        </mxCell>
        <mxCell id="JTGrG_RFn2T3CssoCH3i-99" style="rounded=0;orthogonalLoop=1;jettySize=auto;html=1;exitX=1;exitY=0.5;exitDx=0;exitDy=0;entryX=0.5;entryY=1;entryDx=0;entryDy=0;endArrow=none;endFill=0;" parent="1" source="JTGrG_RFn2T3CssoCH3i-100" target="JTGrG_RFn2T3CssoCH3i-115" edge="1">
          <mxGeometry relative="1" as="geometry">
            <mxPoint x="-582.5" y="816.25" as="targetPoint" />
          </mxGeometry>
        </mxCell>
        <mxCell id="JTGrG_RFn2T3CssoCH3i-100" value="clarity rating" style="ellipse;whiteSpace=wrap;html=1;" parent="1" vertex="1">
          <mxGeometry x="-587.5" y="830" width="90" height="40" as="geometry" />
        </mxCell>
        <mxCell id="JTGrG_RFn2T3CssoCH3i-101" style="rounded=0;orthogonalLoop=1;jettySize=auto;html=1;exitX=1;exitY=0;exitDx=0;exitDy=0;entryX=0;entryY=0.5;entryDx=0;entryDy=0;endArrow=none;endFill=0;" parent="1" source="JTGrG_RFn2T3CssoCH3i-102" target="JTGrG_RFn2T3CssoCH3i-115" edge="1">
          <mxGeometry relative="1" as="geometry">
            <mxPoint x="-572.1915150564537" y="794.9878620347206" as="targetPoint" />
          </mxGeometry>
        </mxCell>
        <mxCell id="JTGrG_RFn2T3CssoCH3i-102" value="appropriateness rating" style="ellipse;whiteSpace=wrap;html=1;" parent="1" vertex="1">
          <mxGeometry x="-682" y="800" width="97" height="60" as="geometry" />
        </mxCell>
        <mxCell id="JTGrG_RFn2T3CssoCH3i-103" style="rounded=0;orthogonalLoop=1;jettySize=auto;html=1;exitX=0;exitY=0;exitDx=0;exitDy=0;entryX=1;entryY=1;entryDx=0;entryDy=0;endArrow=none;endFill=0;" parent="1" source="JTGrG_RFn2T3CssoCH3i-104" target="JTGrG_RFn2T3CssoCH3i-52" edge="1">
          <mxGeometry relative="1" as="geometry" />
        </mxCell>
        <mxCell id="JTGrG_RFn2T3CssoCH3i-104" value="format name" style="ellipse;whiteSpace=wrap;html=1;" parent="1" vertex="1">
          <mxGeometry x="-169" y="969.38" width="70" height="50" as="geometry" />
        </mxCell>
        <mxCell id="JTGrG_RFn2T3CssoCH3i-105" value="1" style="text;html=1;strokeColor=none;fillColor=none;align=center;verticalAlign=middle;whiteSpace=wrap;rounded=0;" parent="1" vertex="1">
          <mxGeometry x="-142.5" y="465" width="60" height="30" as="geometry" />
        </mxCell>
        <mxCell id="JTGrG_RFn2T3CssoCH3i-106" value="M" style="text;html=1;strokeColor=none;fillColor=none;align=center;verticalAlign=middle;whiteSpace=wrap;rounded=0;" parent="1" vertex="1">
          <mxGeometry x="-440" y="620" width="60" height="30" as="geometry" />
        </mxCell>
        <mxCell id="JTGrG_RFn2T3CssoCH3i-107" value="M" style="text;html=1;strokeColor=none;fillColor=none;align=center;verticalAlign=middle;whiteSpace=wrap;rounded=0;" parent="1" vertex="1">
          <mxGeometry x="-92.5" y="390" width="60" height="30" as="geometry" />
        </mxCell>
        <mxCell id="JTGrG_RFn2T3CssoCH3i-109" value="M" style="text;html=1;strokeColor=none;fillColor=none;align=center;verticalAlign=middle;whiteSpace=wrap;rounded=0;" parent="1" vertex="1">
          <mxGeometry x="-545" y="615" width="60" height="30" as="geometry" />
        </mxCell>
        <mxCell id="JTGrG_RFn2T3CssoCH3i-110" value="1" style="text;html=1;strokeColor=none;fillColor=none;align=center;verticalAlign=middle;whiteSpace=wrap;rounded=0;" parent="1" vertex="1">
          <mxGeometry x="-290" y="390" width="60" height="30" as="geometry" />
        </mxCell>
        <mxCell id="JTGrG_RFn2T3CssoCH3i-111" style="rounded=0;orthogonalLoop=1;jettySize=auto;html=1;exitX=1;exitY=0.5;exitDx=0;exitDy=0;entryX=0;entryY=0;entryDx=0;entryDy=0;endArrow=none;endFill=0;" parent="1" source="JTGrG_RFn2T3CssoCH3i-112" target="JTGrG_RFn2T3CssoCH3i-115" edge="1">
          <mxGeometry relative="1" as="geometry" />
        </mxCell>
        <mxCell id="JTGrG_RFn2T3CssoCH3i-112" value="contribution rating" style="ellipse;whiteSpace=wrap;html=1;" parent="1" vertex="1">
          <mxGeometry x="-682" y="750" width="70" height="45" as="geometry" />
        </mxCell>
        <mxCell id="JTGrG_RFn2T3CssoCH3i-113" value="&#xa;&lt;span style=&quot;color: rgb(0, 0, 0); font-family: Helvetica; font-size: 12px; font-style: normal; font-variant-ligatures: normal; font-variant-caps: normal; font-weight: 400; letter-spacing: normal; orphans: 2; text-align: center; text-indent: 0px; text-transform: none; widows: 2; word-spacing: 0px; -webkit-text-stroke-width: 0px; background-color: rgb(251, 251, 251); text-decoration-thickness: initial; text-decoration-style: initial; text-decoration-color: initial; float: none; display: inline !important;&quot;&gt;recommendation&lt;/span&gt;&#xa;&#xa;" style="ellipse;shape=doubleEllipse;whiteSpace=wrap;html=1;" parent="1" vertex="1">
          <mxGeometry x="-420" y="760" width="130" height="70" as="geometry" />
        </mxCell>
        <mxCell id="JTGrG_RFn2T3CssoCH3i-114" style="rounded=0;orthogonalLoop=1;jettySize=auto;html=1;exitX=0.5;exitY=0;exitDx=0;exitDy=0;entryX=0.25;entryY=1;entryDx=0;entryDy=0;endArrow=none;endFill=0;" parent="1" source="JTGrG_RFn2T3CssoCH3i-115" target="JTGrG_RFn2T3CssoCH3i-42" edge="1">
          <mxGeometry relative="1" as="geometry" />
        </mxCell>
        <mxCell id="JTGrG_RFn2T3CssoCH3i-115" value="rating" style="ellipse;whiteSpace=wrap;html=1;dashed=1;" parent="1" vertex="1">
          <mxGeometry x="-535" y="755" width="60" height="40" as="geometry" />
        </mxCell>
        <mxCell id="JTGrG_RFn2T3CssoCH3i-116" style="rounded=0;orthogonalLoop=1;jettySize=auto;html=1;exitX=1;exitY=1;exitDx=0;exitDy=0;entryX=0;entryY=0;entryDx=0;entryDy=0;endArrow=none;endFill=0;" parent="1" source="JTGrG_RFn2T3CssoCH3i-117" target="JTGrG_RFn2T3CssoCH3i-60" edge="1">
          <mxGeometry relative="1" as="geometry" />
        </mxCell>
        <mxCell id="JTGrG_RFn2T3CssoCH3i-117" value="received date" style="ellipse;whiteSpace=wrap;html=1;" parent="1" vertex="1">
          <mxGeometry x="-645" y="477.5" width="60" height="57.5" as="geometry" />
        </mxCell>
        <mxCell id="JTGrG_RFn2T3CssoCH3i-118" value="received status" style="ellipse;shape=doubleEllipse;whiteSpace=wrap;html=1;" parent="1" vertex="1">
          <mxGeometry x="77.5" y="765" width="100" height="60" as="geometry" />
        </mxCell>
        <mxCell id="JTGrG_RFn2T3CssoCH3i-119" value="publication period" style="ellipse;shape=doubleEllipse;whiteSpace=wrap;html=1;" parent="1" vertex="1">
          <mxGeometry x="112.5" y="979.38" width="100" height="60" as="geometry" />
        </mxCell>
        <mxCell id="JTGrG_RFn2T3CssoCH3i-120" value="personal informations" style="rounded=0;whiteSpace=wrap;html=1;" parent="1" vertex="1">
          <mxGeometry x="-55" y="160" width="120" height="60" as="geometry" />
        </mxCell>
        <mxCell id="JTGrG_RFn2T3CssoCH3i-127" style="rounded=0;orthogonalLoop=1;jettySize=auto;html=1;exitX=0.5;exitY=0;exitDx=0;exitDy=0;entryX=0.5;entryY=1;entryDx=0;entryDy=0;endArrow=none;endFill=0;shape=link;" parent="1" source="JTGrG_RFn2T3CssoCH3i-121" target="JTGrG_RFn2T3CssoCH3i-120" edge="1">
          <mxGeometry relative="1" as="geometry" />
        </mxCell>
        <mxCell id="JTGrG_RFn2T3CssoCH3i-140" style="rounded=0;orthogonalLoop=1;jettySize=auto;html=1;exitX=1;exitY=1;exitDx=0;exitDy=0;entryX=0;entryY=0;entryDx=0;entryDy=0;endArrow=none;endFill=0;" parent="1" source="JTGrG_RFn2T3CssoCH3i-121" target="JTGrG_RFn2T3CssoCH3i-22" edge="1">
          <mxGeometry relative="1" as="geometry" />
        </mxCell>
        <mxCell id="JTGrG_RFn2T3CssoCH3i-141" style="rounded=0;orthogonalLoop=1;jettySize=auto;html=1;exitX=0;exitY=1;exitDx=0;exitDy=0;entryX=1;entryY=0;entryDx=0;entryDy=0;endArrow=none;endFill=0;" parent="1" source="JTGrG_RFn2T3CssoCH3i-121" target="JTGrG_RFn2T3CssoCH3i-4" edge="1">
          <mxGeometry relative="1" as="geometry" />
        </mxCell>
        <mxCell id="JTGrG_RFn2T3CssoCH3i-142" style="rounded=0;orthogonalLoop=1;jettySize=auto;html=1;exitX=0.5;exitY=1;exitDx=0;exitDy=0;entryX=0.5;entryY=0;entryDx=0;entryDy=0;endArrow=none;endFill=0;" parent="1" source="JTGrG_RFn2T3CssoCH3i-121" target="JTGrG_RFn2T3CssoCH3i-33" edge="1">
          <mxGeometry relative="1" as="geometry" />
        </mxCell>
        <mxCell id="JTGrG_RFn2T3CssoCH3i-121" value="&lt;font style=&quot;font-size: 22px;&quot;&gt;d&lt;/font&gt;" style="ellipse;whiteSpace=wrap;html=1;aspect=fixed;" parent="1" vertex="1">
          <mxGeometry x="-20" y="260" width="50" height="50" as="geometry" />
        </mxCell>
        <mxCell id="JTGrG_RFn2T3CssoCH3i-149" style="rounded=0;orthogonalLoop=1;jettySize=auto;html=1;exitX=0.5;exitY=1;exitDx=0;exitDy=0;entryX=0.75;entryY=0;entryDx=0;entryDy=0;endArrow=none;endFill=0;" parent="1" source="JTGrG_RFn2T3CssoCH3i-123" target="JTGrG_RFn2T3CssoCH3i-120" edge="1">
          <mxGeometry relative="1" as="geometry" />
        </mxCell>
        <mxCell id="JTGrG_RFn2T3CssoCH3i-123" value="mobile number" style="ellipse;whiteSpace=wrap;html=1;" parent="1" vertex="1">
          <mxGeometry x="65" y="70" width="80" height="50" as="geometry" />
        </mxCell>
        <mxCell id="DfyGqf4TCTLHo5Vh78Qi-7" style="rounded=0;orthogonalLoop=1;jettySize=auto;html=1;exitX=0.5;exitY=1;exitDx=0;exitDy=0;entryX=0.5;entryY=0;entryDx=0;entryDy=0;endArrow=none;endFill=0;" parent="1" source="JTGrG_RFn2T3CssoCH3i-124" target="JTGrG_RFn2T3CssoCH3i-22" edge="1">
          <mxGeometry relative="1" as="geometry" />
        </mxCell>
        <mxCell id="JTGrG_RFn2T3CssoCH3i-124" value="affiliation" style="ellipse;whiteSpace=wrap;html=1;" parent="1" vertex="1">
          <mxGeometry x="370" y="337.5" width="70" height="50" as="geometry" />
        </mxCell>
        <mxCell id="JTGrG_RFn2T3CssoCH3i-147" style="rounded=0;orthogonalLoop=1;jettySize=auto;html=1;exitX=0.5;exitY=1;exitDx=0;exitDy=0;entryX=0.25;entryY=0;entryDx=0;entryDy=0;endArrow=none;endFill=0;" parent="1" source="JTGrG_RFn2T3CssoCH3i-125" target="JTGrG_RFn2T3CssoCH3i-120" edge="1">
          <mxGeometry relative="1" as="geometry" />
        </mxCell>
        <mxCell id="JTGrG_RFn2T3CssoCH3i-125" value="e-mail address" style="ellipse;whiteSpace=wrap;html=1;" parent="1" vertex="1">
          <mxGeometry x="-100" y="75" width="60" height="50" as="geometry" />
        </mxCell>
        <mxCell id="JTGrG_RFn2T3CssoCH3i-146" style="rounded=0;orthogonalLoop=1;jettySize=auto;html=1;exitX=0.5;exitY=1;exitDx=0;exitDy=0;entryX=0;entryY=0.5;entryDx=0;entryDy=0;endArrow=none;endFill=0;" parent="1" source="JTGrG_RFn2T3CssoCH3i-126" target="JTGrG_RFn2T3CssoCH3i-120" edge="1">
          <mxGeometry relative="1" as="geometry" />
        </mxCell>
        <mxCell id="JTGrG_RFn2T3CssoCH3i-126" value="full name" style="ellipse;whiteSpace=wrap;html=1;" parent="1" vertex="1">
          <mxGeometry x="-170" y="110" width="62.5" height="30" as="geometry" />
        </mxCell>
        <mxCell id="JTGrG_RFn2T3CssoCH3i-128" value="" style="shape=requiredInterface;html=1;verticalLabelPosition=bottom;sketch=0;rotation=30;" parent="1" vertex="1">
          <mxGeometry x="165" y="340" width="30" height="45" as="geometry" />
        </mxCell>
        <mxCell id="JTGrG_RFn2T3CssoCH3i-137" value="" style="shape=requiredInterface;html=1;verticalLabelPosition=bottom;sketch=0;rotation=90;" parent="1" vertex="1">
          <mxGeometry x="-8.75" y="331.25" width="27.5" height="42.5" as="geometry" />
        </mxCell>
        <mxCell id="JTGrG_RFn2T3CssoCH3i-144" value="" style="shape=requiredInterface;html=1;verticalLabelPosition=bottom;sketch=0;rotation=-210;" parent="1" vertex="1">
          <mxGeometry x="-170" y="327.5" width="27.5" height="42.5" as="geometry" />
        </mxCell>
        <mxCell id="DfyGqf4TCTLHo5Vh78Qi-1" value="N" style="text;html=1;strokeColor=none;fillColor=none;align=center;verticalAlign=middle;whiteSpace=wrap;rounded=0;" parent="1" vertex="1">
          <mxGeometry x="65" y="420" width="60" height="30" as="geometry" />
        </mxCell>
        <mxCell id="DfyGqf4TCTLHo5Vh78Qi-2" value="M" style="text;html=1;strokeColor=none;fillColor=none;align=center;verticalAlign=middle;whiteSpace=wrap;rounded=0;" parent="1" vertex="1">
          <mxGeometry x="135" y="491.25" width="60" height="30" as="geometry" />
        </mxCell>
        <mxCell id="DfyGqf4TCTLHo5Vh78Qi-4" style="rounded=0;orthogonalLoop=1;jettySize=auto;html=1;exitX=1;exitY=0.5;exitDx=0;exitDy=0;entryX=0;entryY=0.75;entryDx=0;entryDy=0;endArrow=none;endFill=0;" parent="1" source="DfyGqf4TCTLHo5Vh78Qi-3" target="JTGrG_RFn2T3CssoCH3i-42" edge="1">
          <mxGeometry relative="1" as="geometry" />
        </mxCell>
        <mxCell id="DfyGqf4TCTLHo5Vh78Qi-3" value="fbdate" style="ellipse;whiteSpace=wrap;html=1;" parent="1" vertex="1">
          <mxGeometry x="-645" y="717.5" width="55" height="23" as="geometry" />
        </mxCell>
        <mxCell id="DfyGqf4TCTLHo5Vh78Qi-5" value="1" style="text;html=1;strokeColor=none;fillColor=none;align=center;verticalAlign=middle;whiteSpace=wrap;rounded=0;" parent="1" vertex="1">
          <mxGeometry x="-272.5" y="850" width="60" height="30" as="geometry" />
        </mxCell>
        <mxCell id="DfyGqf4TCTLHo5Vh78Qi-6" value="1" style="text;html=1;strokeColor=none;fillColor=none;align=center;verticalAlign=middle;whiteSpace=wrap;rounded=0;" parent="1" vertex="1">
          <mxGeometry x="-115" y="710.5" width="60" height="30" as="geometry" />
        </mxCell>
        <mxCell id="DfyGqf4TCTLHo5Vh78Qi-10" style="rounded=0;orthogonalLoop=1;jettySize=auto;html=1;exitX=0;exitY=1;exitDx=0;exitDy=0;entryX=0.874;entryY=-0.09;entryDx=0;entryDy=0;entryPerimeter=0;endArrow=none;endFill=0;" parent="1" source="DfyGqf4TCTLHo5Vh78Qi-9" target="JTGrG_RFn2T3CssoCH3i-33" edge="1">
          <mxGeometry relative="1" as="geometry" />
        </mxCell>
        <mxCell id="DfyGqf4TCTLHo5Vh78Qi-9" value="affiliation" style="ellipse;whiteSpace=wrap;html=1;" parent="1" vertex="1">
          <mxGeometry x="42.5" y="340" width="70" height="50" as="geometry" />
        </mxCell>
        <mxCell id="DfyGqf4TCTLHo5Vh78Qi-11" value="&lt;font style=&quot;&quot; color=&quot;#ff3333&quot;&gt;&lt;u&gt;ManID&lt;/u&gt;&lt;/font&gt;" style="rounded=0;whiteSpace=wrap;html=1;" parent="1" vertex="1">
          <mxGeometry x="-756.25" y="2220" width="120" height="60" as="geometry" />
        </mxCell>
        <mxCell id="DfyGqf4TCTLHo5Vh78Qi-12" value="Title" style="rounded=0;whiteSpace=wrap;html=1;" parent="1" vertex="1">
          <mxGeometry x="-636.25" y="2220" width="120" height="60" as="geometry" />
        </mxCell>
        <mxCell id="DfyGqf4TCTLHo5Vh78Qi-13" value="Received date" style="rounded=0;whiteSpace=wrap;html=1;" parent="1" vertex="1">
          <mxGeometry x="-516.25" y="2220" width="120" height="60" as="geometry" />
        </mxCell>
        <mxCell id="DfyGqf4TCTLHo5Vh78Qi-14" value="Manuscript Status" style="rounded=0;whiteSpace=wrap;html=1;" parent="1" vertex="1">
          <mxGeometry x="-396.25" y="2220" width="120" height="60" as="geometry" />
        </mxCell>
        <mxCell id="DfyGqf4TCTLHo5Vh78Qi-16" value="&lt;span style=&quot;background-color: rgb(255, 229, 153);&quot;&gt;Manuscript&lt;/span&gt;" style="text;html=1;strokeColor=none;fillColor=none;align=center;verticalAlign=middle;whiteSpace=wrap;rounded=0;" parent="1" vertex="1">
          <mxGeometry x="-766.25" y="2170" width="60" height="30" as="geometry" />
        </mxCell>
        <mxCell id="iFS43EzgvA0tgg8N9qlx-22" style="edgeStyle=orthogonalEdgeStyle;rounded=0;orthogonalLoop=1;jettySize=auto;html=1;exitX=0.5;exitY=0;exitDx=0;exitDy=0;entryX=0.5;entryY=0;entryDx=0;entryDy=0;" edge="1" parent="1" source="DfyGqf4TCTLHo5Vh78Qi-17" target="iFS43EzgvA0tgg8N9qlx-19">
          <mxGeometry relative="1" as="geometry" />
        </mxCell>
        <mxCell id="DfyGqf4TCTLHo5Vh78Qi-17" value="&lt;u style=&quot;border-color: var(--border-color); color: rgb(255, 51, 51);&quot;&gt;AID&lt;/u&gt;" style="rounded=0;whiteSpace=wrap;html=1;" parent="1" vertex="1">
          <mxGeometry x="-758.75" y="2060" width="120" height="60" as="geometry" />
        </mxCell>
        <mxCell id="DfyGqf4TCTLHo5Vh78Qi-21" value="Affiliation" style="rounded=0;whiteSpace=wrap;html=1;" parent="1" vertex="1">
          <mxGeometry x="-158.75" y="2060" width="120" height="60" as="geometry" />
        </mxCell>
        <mxCell id="DfyGqf4TCTLHo5Vh78Qi-22" value="&lt;span style=&quot;background-color: rgb(255, 229, 153);&quot;&gt;Author&lt;/span&gt;" style="text;html=1;strokeColor=none;fillColor=none;align=center;verticalAlign=middle;whiteSpace=wrap;rounded=0;" parent="1" vertex="1">
          <mxGeometry x="-763.75" y="2020" width="60" height="30" as="geometry" />
        </mxCell>
        <mxCell id="iFS43EzgvA0tgg8N9qlx-24" style="edgeStyle=orthogonalEdgeStyle;rounded=0;orthogonalLoop=1;jettySize=auto;html=1;exitX=0.5;exitY=1;exitDx=0;exitDy=0;entryX=0.5;entryY=0;entryDx=0;entryDy=0;endArrow=none;endFill=0;startArrow=classic;startFill=1;" edge="1" parent="1" source="DfyGqf4TCTLHo5Vh78Qi-23" target="iFS43EzgvA0tgg8N9qlx-17">
          <mxGeometry relative="1" as="geometry">
            <Array as="points">
              <mxPoint x="-692.53" y="1729" />
              <mxPoint x="-312.53" y="1729" />
            </Array>
          </mxGeometry>
        </mxCell>
        <mxCell id="DfyGqf4TCTLHo5Vh78Qi-23" value="&lt;u style=&quot;border-color: var(--border-color); color: rgb(255, 51, 51);&quot;&gt;RID&lt;/u&gt;" style="rounded=0;whiteSpace=wrap;html=1;" parent="1" vertex="1">
          <mxGeometry x="-752.53" y="1649" width="120" height="60" as="geometry" />
        </mxCell>
        <mxCell id="DfyGqf4TCTLHo5Vh78Qi-26" value="Affiliation" style="rounded=0;whiteSpace=wrap;html=1;" parent="1" vertex="1">
          <mxGeometry x="-152.53" y="1649" width="120" height="60" as="geometry" />
        </mxCell>
        <mxCell id="DfyGqf4TCTLHo5Vh78Qi-28" value="&lt;span style=&quot;background-color: rgb(255, 229, 153);&quot;&gt;Reviewer&lt;/span&gt;" style="text;html=1;strokeColor=none;fillColor=none;align=center;verticalAlign=middle;whiteSpace=wrap;rounded=0;" parent="1" vertex="1">
          <mxGeometry x="-762.53" y="1599" width="60" height="30" as="geometry" />
        </mxCell>
        <mxCell id="DfyGqf4TCTLHo5Vh78Qi-29" value="&lt;font color=&quot;#ff3333&quot;&gt;&lt;u&gt;ISCode&lt;/u&gt;&lt;/font&gt;" style="rounded=0;whiteSpace=wrap;html=1;" parent="1" vertex="1">
          <mxGeometry x="-757.53" y="1779" width="120" height="60" as="geometry" />
        </mxCell>
        <mxCell id="DfyGqf4TCTLHo5Vh78Qi-30" value="Descriptinon" style="rounded=0;whiteSpace=wrap;html=1;" parent="1" vertex="1">
          <mxGeometry x="-637.53" y="1779" width="120" height="60" as="geometry" />
        </mxCell>
        <mxCell id="DfyGqf4TCTLHo5Vh78Qi-31" value="&lt;span style=&quot;background-color: rgb(255, 229, 153);&quot;&gt;Area Of Interest&lt;/span&gt;" style="text;html=1;strokeColor=none;fillColor=none;align=center;verticalAlign=middle;whiteSpace=wrap;rounded=0;" parent="1" vertex="1">
          <mxGeometry x="-762.53" y="1729" width="100" height="30" as="geometry" />
        </mxCell>
        <mxCell id="DfyGqf4TCTLHo5Vh78Qi-32" value="&lt;u style=&quot;border-color: var(--border-color); color: rgb(255, 51, 51);&quot;&gt;EID&lt;/u&gt;" style="rounded=0;whiteSpace=wrap;html=1;" parent="1" vertex="1">
          <mxGeometry x="-752.53" y="1909" width="120" height="60" as="geometry" />
        </mxCell>
        <mxCell id="DfyGqf4TCTLHo5Vh78Qi-35" value="Years Of Expertise" style="rounded=0;whiteSpace=wrap;html=1;" parent="1" vertex="1">
          <mxGeometry x="-155.03" y="1909" width="120" height="60" as="geometry" />
        </mxCell>
        <mxCell id="DfyGqf4TCTLHo5Vh78Qi-36" value="&lt;span style=&quot;background-color: rgb(255, 229, 153);&quot;&gt;Editor&lt;/span&gt;" style="text;html=1;strokeColor=none;fillColor=none;align=center;verticalAlign=middle;whiteSpace=wrap;rounded=0;" parent="1" vertex="1">
          <mxGeometry x="-762.53" y="1859" width="60" height="30" as="geometry" />
        </mxCell>
        <mxCell id="DfyGqf4TCTLHo5Vh78Qi-37" value="&lt;font color=&quot;#ff3333&quot;&gt;&lt;u&gt;IssueID&lt;/u&gt;&lt;/font&gt;" style="rounded=0;whiteSpace=wrap;html=1;" parent="1" vertex="1">
          <mxGeometry x="-753.75" y="2350" width="120" height="60" as="geometry" />
        </mxCell>
        <mxCell id="DfyGqf4TCTLHo5Vh78Qi-38" value="Publication period" style="rounded=0;whiteSpace=wrap;html=1;" parent="1" vertex="1">
          <mxGeometry x="-633.75" y="2350" width="120" height="60" as="geometry" />
        </mxCell>
        <mxCell id="DfyGqf4TCTLHo5Vh78Qi-39" value="Publication Year" style="rounded=0;whiteSpace=wrap;html=1;" parent="1" vertex="1">
          <mxGeometry x="-513.75" y="2350" width="120" height="60" as="geometry" />
        </mxCell>
        <mxCell id="DfyGqf4TCTLHo5Vh78Qi-40" value="Volume" style="rounded=0;whiteSpace=wrap;html=1;" parent="1" vertex="1">
          <mxGeometry x="-393.75" y="2350" width="120" height="60" as="geometry" />
        </mxCell>
        <mxCell id="DfyGqf4TCTLHo5Vh78Qi-41" value="Number Of Record" style="rounded=0;whiteSpace=wrap;html=1;" parent="1" vertex="1">
          <mxGeometry x="-273.75" y="2350" width="120" height="60" as="geometry" />
        </mxCell>
        <mxCell id="DfyGqf4TCTLHo5Vh78Qi-42" value="&lt;span style=&quot;background-color: rgb(255, 229, 153);&quot;&gt;Issue&lt;/span&gt;" style="text;html=1;strokeColor=none;fillColor=none;align=center;verticalAlign=middle;whiteSpace=wrap;rounded=0;" parent="1" vertex="1">
          <mxGeometry x="-758.75" y="2310" width="60" height="30" as="geometry" />
        </mxCell>
        <mxCell id="DfyGqf4TCTLHo5Vh78Qi-43" value="&lt;font color=&quot;#ff3333&quot;&gt;&lt;u&gt;FBID&lt;/u&gt;&lt;/font&gt;" style="rounded=0;whiteSpace=wrap;html=1;" parent="1" vertex="1">
          <mxGeometry x="-751.25" y="2488" width="120" height="60" as="geometry" />
        </mxCell>
        <mxCell id="DfyGqf4TCTLHo5Vh78Qi-44" value="Manuscript ID" style="rounded=0;whiteSpace=wrap;html=1;" parent="1" vertex="1">
          <mxGeometry x="-631.25" y="2488" width="120" height="60" as="geometry" />
        </mxCell>
        <mxCell id="DfyGqf4TCTLHo5Vh78Qi-45" value="Reviewer ID" style="rounded=0;whiteSpace=wrap;html=1;" parent="1" vertex="1">
          <mxGeometry x="-511.25" y="2488" width="120" height="60" as="geometry" />
        </mxCell>
        <mxCell id="DfyGqf4TCTLHo5Vh78Qi-46" value="Appropriateness Rating" style="rounded=0;whiteSpace=wrap;html=1;" parent="1" vertex="1">
          <mxGeometry x="-391.25" y="2488" width="120" height="60" as="geometry" />
        </mxCell>
        <mxCell id="DfyGqf4TCTLHo5Vh78Qi-47" value="Clarity Rating" style="rounded=0;whiteSpace=wrap;html=1;" parent="1" vertex="1">
          <mxGeometry x="-271.25" y="2488" width="120" height="60" as="geometry" />
        </mxCell>
        <mxCell id="DfyGqf4TCTLHo5Vh78Qi-48" value="&lt;span style=&quot;background-color: rgb(255, 229, 153);&quot;&gt;Feedback&lt;/span&gt;" style="text;html=1;strokeColor=none;fillColor=none;align=center;verticalAlign=middle;whiteSpace=wrap;rounded=0;" parent="1" vertex="1">
          <mxGeometry x="-761.25" y="2438" width="60" height="30" as="geometry" />
        </mxCell>
        <mxCell id="DfyGqf4TCTLHo5Vh78Qi-49" value="Recommendation" style="rounded=0;whiteSpace=wrap;html=1;" parent="1" vertex="1">
          <mxGeometry x="88.75" y="2488" width="120" height="60" as="geometry" />
        </mxCell>
        <mxCell id="DfyGqf4TCTLHo5Vh78Qi-50" value="Contribution Rating" style="rounded=0;whiteSpace=wrap;html=1;" parent="1" vertex="1">
          <mxGeometry x="-31.25" y="2488" width="120" height="60" as="geometry" />
        </mxCell>
        <mxCell id="DfyGqf4TCTLHo5Vh78Qi-51" value="Methodology Rating" style="rounded=0;whiteSpace=wrap;html=1;" parent="1" vertex="1">
          <mxGeometry x="-151.25" y="2488" width="120" height="60" as="geometry" />
        </mxCell>
        <mxCell id="DfyGqf4TCTLHo5Vh78Qi-53" value="&lt;font color=&quot;#ff3333&quot;&gt;&lt;u&gt;TypesetID&lt;/u&gt;&lt;/font&gt;" style="rounded=0;whiteSpace=wrap;html=1;" parent="1" vertex="1">
          <mxGeometry x="-753.75" y="2610" width="120" height="60" as="geometry" />
        </mxCell>
        <mxCell id="DfyGqf4TCTLHo5Vh78Qi-54" value="Line Spacies" style="rounded=0;whiteSpace=wrap;html=1;" parent="1" vertex="1">
          <mxGeometry x="-633.75" y="2610" width="120" height="60" as="geometry" />
        </mxCell>
        <mxCell id="DfyGqf4TCTLHo5Vh78Qi-55" value="Font Style" style="rounded=0;whiteSpace=wrap;html=1;" parent="1" vertex="1">
          <mxGeometry x="-513.75" y="2610" width="120" height="60" as="geometry" />
        </mxCell>
        <mxCell id="DfyGqf4TCTLHo5Vh78Qi-56" value="Font Size" style="rounded=0;whiteSpace=wrap;html=1;" parent="1" vertex="1">
          <mxGeometry x="-393.75" y="2610" width="120" height="60" as="geometry" />
        </mxCell>
        <mxCell id="DfyGqf4TCTLHo5Vh78Qi-57" value="Justification" style="rounded=0;whiteSpace=wrap;html=1;" parent="1" vertex="1">
          <mxGeometry x="-273.75" y="2610" width="120" height="60" as="geometry" />
        </mxCell>
        <mxCell id="DfyGqf4TCTLHo5Vh78Qi-58" value="&lt;span style=&quot;background-color: rgb(255, 229, 153);&quot;&gt;Type Setting&lt;/span&gt;" style="text;html=1;strokeColor=none;fillColor=none;align=center;verticalAlign=middle;whiteSpace=wrap;rounded=0;" parent="1" vertex="1">
          <mxGeometry x="-758.75" y="2560" width="100" height="30" as="geometry" />
        </mxCell>
        <mxCell id="DfyGqf4TCTLHo5Vh78Qi-64" value="email address" style="rounded=0;whiteSpace=wrap;html=1;" parent="1" vertex="1">
          <mxGeometry x="-515.03" y="1909" width="120" height="60" as="geometry" />
        </mxCell>
        <mxCell id="DfyGqf4TCTLHo5Vh78Qi-65" value="mailing address" style="rounded=0;whiteSpace=wrap;html=1;" parent="1" vertex="1">
          <mxGeometry x="-395.03" y="1909" width="120" height="60" as="geometry" />
        </mxCell>
        <mxCell id="DfyGqf4TCTLHo5Vh78Qi-66" value="mobile number" style="rounded=0;whiteSpace=wrap;html=1;" parent="1" vertex="1">
          <mxGeometry x="-275.03" y="1909" width="120" height="60" as="geometry" />
        </mxCell>
        <mxCell id="DfyGqf4TCTLHo5Vh78Qi-67" value="Fullname" style="rounded=0;whiteSpace=wrap;html=1;" parent="1" vertex="1">
          <mxGeometry x="-635.03" y="1909" width="120" height="60" as="geometry" />
        </mxCell>
        <mxCell id="DfyGqf4TCTLHo5Vh78Qi-70" style="rounded=0;orthogonalLoop=1;jettySize=auto;html=1;exitX=1;exitY=0.5;exitDx=0;exitDy=0;entryX=0;entryY=0.5;entryDx=0;entryDy=0;endArrow=none;endFill=0;" parent="1" source="DfyGqf4TCTLHo5Vh78Qi-69" target="JTGrG_RFn2T3CssoCH3i-52" edge="1">
          <mxGeometry relative="1" as="geometry" />
        </mxCell>
        <mxCell id="DfyGqf4TCTLHo5Vh78Qi-69" value="&lt;u&gt;&lt;b&gt;typesetid&lt;/b&gt;&lt;/u&gt;" style="ellipse;whiteSpace=wrap;html=1;" parent="1" vertex="1">
          <mxGeometry x="-420" y="890" width="57.5" height="40.62" as="geometry" />
        </mxCell>
        <mxCell id="DfyGqf4TCTLHo5Vh78Qi-72" style="rounded=0;orthogonalLoop=1;jettySize=auto;html=1;exitX=0;exitY=0.5;exitDx=0;exitDy=0;entryX=0.906;entryY=0.015;entryDx=0;entryDy=0;entryPerimeter=0;endArrow=none;endFill=0;" parent="1" source="DfyGqf4TCTLHo5Vh78Qi-71" target="JTGrG_RFn2T3CssoCH3i-15" edge="1">
          <mxGeometry relative="1" as="geometry" />
        </mxCell>
        <mxCell id="DfyGqf4TCTLHo5Vh78Qi-71" value="&lt;u&gt;&lt;b&gt;manid&lt;/b&gt;&lt;/u&gt;" style="ellipse;whiteSpace=wrap;html=1;" parent="1" vertex="1">
          <mxGeometry x="132.5" y="646.88" width="45" height="32.5" as="geometry" />
        </mxCell>
        <mxCell id="DfyGqf4TCTLHo5Vh78Qi-75" style="rounded=0;orthogonalLoop=1;jettySize=auto;html=1;exitX=0;exitY=1;exitDx=0;exitDy=0;entryX=1;entryY=0.25;entryDx=0;entryDy=0;endArrow=none;endFill=0;" parent="1" source="DfyGqf4TCTLHo5Vh78Qi-73" target="JTGrG_RFn2T3CssoCH3i-120" edge="1">
          <mxGeometry relative="1" as="geometry" />
        </mxCell>
        <mxCell id="DfyGqf4TCTLHo5Vh78Qi-73" value="&lt;u&gt;&lt;b&gt;ID&lt;/b&gt;&lt;/u&gt;" style="ellipse;whiteSpace=wrap;html=1;" parent="1" vertex="1">
          <mxGeometry x="142.5" y="110" width="77.5" height="30" as="geometry" />
        </mxCell>
        <mxCell id="DfyGqf4TCTLHo5Vh78Qi-76" value="&lt;u&gt;&lt;b&gt;issueid&lt;/b&gt;&lt;/u&gt;" style="ellipse;whiteSpace=wrap;html=1;" parent="1" vertex="1">
          <mxGeometry x="152.5" y="930.62" width="42.5" height="40.62" as="geometry" />
        </mxCell>
        <mxCell id="DfyGqf4TCTLHo5Vh78Qi-78" value="1" style="text;html=1;strokeColor=none;fillColor=none;align=center;verticalAlign=middle;whiteSpace=wrap;rounded=0;" parent="1" vertex="1">
          <mxGeometry x="-315" y="460" width="60" height="30" as="geometry" />
        </mxCell>
        <mxCell id="iFS43EzgvA0tgg8N9qlx-2" value="email address" style="rounded=0;whiteSpace=wrap;html=1;" vertex="1" parent="1">
          <mxGeometry x="-518.75" y="2060" width="120" height="60" as="geometry" />
        </mxCell>
        <mxCell id="iFS43EzgvA0tgg8N9qlx-3" value="mailing address" style="rounded=0;whiteSpace=wrap;html=1;" vertex="1" parent="1">
          <mxGeometry x="-398.75" y="2060" width="120" height="60" as="geometry" />
        </mxCell>
        <mxCell id="iFS43EzgvA0tgg8N9qlx-4" value="mobile number" style="rounded=0;whiteSpace=wrap;html=1;" vertex="1" parent="1">
          <mxGeometry x="-278.75" y="2060" width="120" height="60" as="geometry" />
        </mxCell>
        <mxCell id="iFS43EzgvA0tgg8N9qlx-5" value="Fullname" style="rounded=0;whiteSpace=wrap;html=1;" vertex="1" parent="1">
          <mxGeometry x="-638.75" y="2060" width="120" height="60" as="geometry" />
        </mxCell>
        <mxCell id="iFS43EzgvA0tgg8N9qlx-7" value="email address" style="rounded=0;whiteSpace=wrap;html=1;" vertex="1" parent="1">
          <mxGeometry x="-512.53" y="1649" width="120" height="60" as="geometry" />
        </mxCell>
        <mxCell id="iFS43EzgvA0tgg8N9qlx-8" value="mailing address" style="rounded=0;whiteSpace=wrap;html=1;" vertex="1" parent="1">
          <mxGeometry x="-392.53" y="1649" width="120" height="60" as="geometry" />
        </mxCell>
        <mxCell id="iFS43EzgvA0tgg8N9qlx-9" value="mobile number" style="rounded=0;whiteSpace=wrap;html=1;" vertex="1" parent="1">
          <mxGeometry x="-272.53" y="1649" width="120" height="60" as="geometry" />
        </mxCell>
        <mxCell id="iFS43EzgvA0tgg8N9qlx-10" value="Fullname" style="rounded=0;whiteSpace=wrap;html=1;" vertex="1" parent="1">
          <mxGeometry x="-632.53" y="1649" width="120" height="60" as="geometry" />
        </mxCell>
        <mxCell id="iFS43EzgvA0tgg8N9qlx-12" style="edgeStyle=orthogonalEdgeStyle;rounded=0;orthogonalLoop=1;jettySize=auto;html=1;exitX=0.5;exitY=0;exitDx=0;exitDy=0;entryX=0.5;entryY=1;entryDx=0;entryDy=0;" edge="1" parent="1" source="iFS43EzgvA0tgg8N9qlx-11" target="DfyGqf4TCTLHo5Vh78Qi-11">
          <mxGeometry relative="1" as="geometry">
            <Array as="points">
              <mxPoint x="-98.75" y="2300" />
              <mxPoint x="-695.75" y="2300" />
            </Array>
          </mxGeometry>
        </mxCell>
        <mxCell id="iFS43EzgvA0tgg8N9qlx-11" value="&lt;font color=&quot;#ff3333&quot;&gt;&lt;u&gt;ManID&lt;/u&gt;&lt;/font&gt;" style="rounded=0;whiteSpace=wrap;html=1;fillColor=#d5e8d4;strokeColor=#82b366;" vertex="1" parent="1">
          <mxGeometry x="-153.75" y="2350" width="120" height="60" as="geometry" />
        </mxCell>
        <mxCell id="iFS43EzgvA0tgg8N9qlx-15" style="edgeStyle=orthogonalEdgeStyle;rounded=0;orthogonalLoop=1;jettySize=auto;html=1;exitX=0.5;exitY=1;exitDx=0;exitDy=0;entryX=0.25;entryY=1;entryDx=0;entryDy=0;" edge="1" parent="1" source="iFS43EzgvA0tgg8N9qlx-13" target="DfyGqf4TCTLHo5Vh78Qi-11">
          <mxGeometry relative="1" as="geometry">
            <mxPoint x="-823.75" y="2280" as="targetPoint" />
            <Array as="points">
              <mxPoint x="-94" y="2710" />
              <mxPoint x="-814" y="2710" />
              <mxPoint x="-814" y="2300" />
              <mxPoint x="-726" y="2300" />
            </Array>
          </mxGeometry>
        </mxCell>
        <mxCell id="iFS43EzgvA0tgg8N9qlx-13" value="&lt;font style=&quot;&quot; color=&quot;#ff3333&quot;&gt;&lt;u&gt;ManID&lt;/u&gt;&lt;/font&gt;" style="rounded=0;whiteSpace=wrap;html=1;fillColor=#d5e8d4;strokeColor=#82b366;" vertex="1" parent="1">
          <mxGeometry x="-153.75" y="2610" width="120" height="60" as="geometry" />
        </mxCell>
        <mxCell id="iFS43EzgvA0tgg8N9qlx-25" style="edgeStyle=orthogonalEdgeStyle;rounded=0;orthogonalLoop=1;jettySize=auto;html=1;exitX=0.5;exitY=0;exitDx=0;exitDy=0;entryX=0.5;entryY=0;entryDx=0;entryDy=0;" edge="1" parent="1" source="iFS43EzgvA0tgg8N9qlx-16" target="DfyGqf4TCTLHo5Vh78Qi-29">
          <mxGeometry relative="1" as="geometry">
            <Array as="points">
              <mxPoint x="-432.53" y="1759" />
              <mxPoint x="-697.53" y="1759" />
            </Array>
          </mxGeometry>
        </mxCell>
        <mxCell id="iFS43EzgvA0tgg8N9qlx-16" value="&lt;font color=&quot;#ff3333&quot;&gt;&lt;u&gt;ISCode&lt;/u&gt;&lt;/font&gt;" style="rounded=0;whiteSpace=wrap;html=1;fillColor=#d5e8d4;strokeColor=#82b366;" vertex="1" parent="1">
          <mxGeometry x="-492.53" y="1779" width="120" height="60" as="geometry" />
        </mxCell>
        <mxCell id="iFS43EzgvA0tgg8N9qlx-17" value="&lt;font color=&quot;#ff3333&quot;&gt;&lt;u&gt;RID&lt;/u&gt;&lt;/font&gt;" style="rounded=0;whiteSpace=wrap;html=1;fillColor=#d5e8d4;strokeColor=#82b366;" vertex="1" parent="1">
          <mxGeometry x="-372.53" y="1779" width="120" height="60" as="geometry" />
        </mxCell>
        <mxCell id="iFS43EzgvA0tgg8N9qlx-23" style="edgeStyle=orthogonalEdgeStyle;rounded=0;orthogonalLoop=1;jettySize=auto;html=1;exitX=0.5;exitY=1;exitDx=0;exitDy=0;entryX=0.5;entryY=0;entryDx=0;entryDy=0;" edge="1" parent="1" source="iFS43EzgvA0tgg8N9qlx-18" target="DfyGqf4TCTLHo5Vh78Qi-11">
          <mxGeometry relative="1" as="geometry">
            <mxPoint x="166.25" y="2160" as="sourcePoint" />
          </mxGeometry>
        </mxCell>
        <mxCell id="iFS43EzgvA0tgg8N9qlx-18" value="&lt;font color=&quot;#ff3333&quot;&gt;&lt;u&gt;ManID&lt;/u&gt;&lt;/font&gt;" style="rounded=0;whiteSpace=wrap;html=1;fillColor=#d5e8d4;strokeColor=#82b366;" vertex="1" parent="1">
          <mxGeometry x="108.75" y="2060" width="120" height="60" as="geometry" />
        </mxCell>
        <mxCell id="iFS43EzgvA0tgg8N9qlx-19" value="&lt;font color=&quot;#ff3333&quot;&gt;&lt;u&gt;AID&lt;/u&gt;&lt;/font&gt;" style="rounded=0;whiteSpace=wrap;html=1;fillColor=#d5e8d4;strokeColor=#82b366;" vertex="1" parent="1">
          <mxGeometry x="-11.25" y="2060" width="120" height="60" as="geometry" />
        </mxCell>
        <mxCell id="iFS43EzgvA0tgg8N9qlx-26" style="edgeStyle=orthogonalEdgeStyle;rounded=0;orthogonalLoop=1;jettySize=auto;html=1;exitX=0.5;exitY=0;exitDx=0;exitDy=0;entryX=0.5;entryY=0;entryDx=0;entryDy=0;" edge="1" parent="1" source="iFS43EzgvA0tgg8N9qlx-20" target="DfyGqf4TCTLHo5Vh78Qi-23">
          <mxGeometry relative="1" as="geometry">
            <Array as="points">
              <mxPoint x="392" y="2488" />
              <mxPoint x="392" y="1620" />
              <mxPoint x="-693" y="1620" />
            </Array>
          </mxGeometry>
        </mxCell>
        <mxCell id="iFS43EzgvA0tgg8N9qlx-20" value="&lt;font color=&quot;#ff3333&quot;&gt;&lt;u&gt;RID&lt;/u&gt;&lt;/font&gt;" style="rounded=0;whiteSpace=wrap;html=1;fillColor=#d5e8d4;strokeColor=#82b366;" vertex="1" parent="1">
          <mxGeometry x="328.75" y="2488" width="120" height="60" as="geometry" />
        </mxCell>
        <mxCell id="iFS43EzgvA0tgg8N9qlx-27" style="edgeStyle=orthogonalEdgeStyle;rounded=0;orthogonalLoop=1;jettySize=auto;html=1;exitX=0.5;exitY=0;exitDx=0;exitDy=0;entryX=0.5;entryY=0;entryDx=0;entryDy=0;" edge="1" parent="1" source="iFS43EzgvA0tgg8N9qlx-21" target="DfyGqf4TCTLHo5Vh78Qi-32">
          <mxGeometry relative="1" as="geometry">
            <Array as="points">
              <mxPoint x="272" y="2488" />
              <mxPoint x="272" y="1870" />
              <mxPoint x="-692" y="1870" />
            </Array>
          </mxGeometry>
        </mxCell>
        <mxCell id="iFS43EzgvA0tgg8N9qlx-21" value="&lt;font color=&quot;#ff3333&quot;&gt;&lt;u&gt;EditorID&lt;/u&gt;&lt;/font&gt;" style="rounded=0;whiteSpace=wrap;html=1;fillColor=#d5e8d4;strokeColor=#82b366;" vertex="1" parent="1">
          <mxGeometry x="208.75" y="2488" width="120" height="60" as="geometry" />
        </mxCell>
        <mxCell id="iFS43EzgvA0tgg8N9qlx-29" style="edgeStyle=orthogonalEdgeStyle;rounded=0;orthogonalLoop=1;jettySize=auto;html=1;exitX=0.5;exitY=0;exitDx=0;exitDy=0;entryX=0;entryY=0.5;entryDx=0;entryDy=0;" edge="1" parent="1" source="iFS43EzgvA0tgg8N9qlx-28" target="DfyGqf4TCTLHo5Vh78Qi-32">
          <mxGeometry relative="1" as="geometry">
            <Array as="points">
              <mxPoint x="28" y="1590" />
              <mxPoint x="-813" y="1590" />
              <mxPoint x="-813" y="1939" />
            </Array>
          </mxGeometry>
        </mxCell>
        <mxCell id="iFS43EzgvA0tgg8N9qlx-28" value="&lt;font color=&quot;#ff3333&quot;&gt;&lt;u&gt;EditorID&lt;/u&gt;&lt;/font&gt;" style="rounded=0;whiteSpace=wrap;html=1;fillColor=#d5e8d4;strokeColor=#82b366;" vertex="1" parent="1">
          <mxGeometry x="-32.53" y="1649" width="120" height="60" as="geometry" />
        </mxCell>
        <mxCell id="iFS43EzgvA0tgg8N9qlx-32" style="edgeStyle=orthogonalEdgeStyle;rounded=0;orthogonalLoop=1;jettySize=auto;html=1;exitX=0.5;exitY=0;exitDx=0;exitDy=0;entryX=0.5;entryY=1;entryDx=0;entryDy=0;" edge="1" parent="1" source="iFS43EzgvA0tgg8N9qlx-31" target="DfyGqf4TCTLHo5Vh78Qi-32">
          <mxGeometry relative="1" as="geometry">
            <Array as="points">
              <mxPoint x="-216" y="2140" />
              <mxPoint x="-811" y="2140" />
              <mxPoint x="-811" y="1990" />
              <mxPoint x="-692" y="1990" />
            </Array>
          </mxGeometry>
        </mxCell>
        <mxCell id="iFS43EzgvA0tgg8N9qlx-31" value="&lt;font color=&quot;#ff3333&quot;&gt;&lt;u&gt;EID&lt;/u&gt;&lt;/font&gt;" style="rounded=0;whiteSpace=wrap;html=1;fillColor=#d5e8d4;strokeColor=#82b366;" vertex="1" parent="1">
          <mxGeometry x="-276.25" y="2220" width="120" height="60" as="geometry" />
        </mxCell>
      </root>
    </mxGraphModel>
  </diagram>
</mxfile>
